Coordinates
version=1
nRows=28
nColumns=23
inDegrees=yes

Units are S.I. units (second, meters, Newtons, ...)
Angles are in degrees.

endheader
time	pelvis_tilt	pelvis_list	pelvis_rotation	pelvis_tx	pelvis_ty	pelvis_tz	hip_flexion_r	hip_adduction_r	hip_rotation_r	knee_angle_r	knee_angle_r_beta	ankle_angle_r	subtalar_angle_r	mtp_angle_r	hip_flexion_l	hip_adduction_l	hip_rotation_l	knee_angle_l	knee_angle_l_beta	ankle_angle_l	subtalar_angle_l	mtp_angle_l
    120.00000000	    -19.69421363	     -2.68471001	     -1.81561721	      0.03739263	      1.29822962	      0.22825214	     90.08876643	     -0.36150167	      2.44486459	     89.46353053	      1.56143317	     -0.32615506	      0.00000000	      0.00000000	     48.70310538	     -9.64812299	     -5.22472367	     60.06723626	      1.04837105	      5.24003317	      0.00000000	      0.00000000
    120.00888900	    -19.69625036	     -2.48348595	     -1.64316809	      0.03690563	      1.29807052	      0.22824804	     88.78427336	     -0.63278616	      2.40326662	     86.70390595	      1.51326863	     -0.24657798	      0.00000000	      0.00000000	     49.95460596	     -9.46996060	     -4.70160100	     63.62092649	      1.11039464	      6.26076297	      0.00000000	      0.00000000
    120.01777800	    -19.60274187	     -2.39024637	     -1.31059155	      0.03635773	      1.29801890	      0.22801646	     87.20004221	     -1.07643532	      2.19448193	     83.82822141	      1.46307847	     -0.26484240	      0.00000000	      0.00000000	     51.24677127	     -9.24932283	     -4.02173606	     67.15704339	      1.17211152	      6.81913235	      0.00000000	      0.00000000
    120.02666700	    -19.52147747	     -2.25765270	     -0.90934880	      0.03589861	      1.29791251	      0.22780142	     85.48499174	     -1.60297350	      1.97264439	     80.86041117	      1.41128041	     -0.25769350	      0.00000000	      0.00000000	     52.61511899	     -8.95755946	     -3.39729873	     70.64979104	      1.23307147	      7.20077262	      0.00000000	      0.00000000
    120.03555600	    -19.51430643	     -2.13757823	     -0.44891755	      0.03554181	      1.29764422	      0.22762329	     83.70941183	     -2.18373202	      1.67361677	     77.79840454	      1.35783831	     -0.25261017	      0.00000000	      0.00000000	     54.14541892	     -8.64663481	     -2.79775154	     74.09975471	      1.29328469	      7.35056917	      0.00000000	      0.00000000
    120.04444400	    -19.42412062	     -1.95517747	      0.10029380	      0.03525019	      1.29746999	      0.22742164	     81.73442753	     -2.85919286	      1.37566276	     74.68036644	      1.30341828	     -0.24685847	      0.00000000	      0.00000000	     55.63537095	     -8.22684575	     -2.26963312	     77.46887329	      1.35208691	      7.43769517	      0.00000000	      0.00000000
    120.05333300	    -19.42275881	     -1.80732228	      0.67887784	      0.03508215	      1.29716887	      0.22726689	     79.71877163	     -3.54327239	      0.97635524	     71.46113145	      1.24723203	     -0.28143717	      0.00000000	      0.00000000	     57.29513457	     -7.82134874	     -1.75640973	     80.76753202	      1.40965936	      7.32997073	      0.00000000	      0.00000000
    120.06222200	    -19.36699960	     -1.61084031	      1.32936454	      0.03496549	      1.29691750	      0.22714798	     77.56340989	     -4.28499446	      0.55682174	     68.21322957	      1.19054545	     -0.33127606	      0.00000000	      0.00000000	     58.94183587	     -7.33455480	     -1.31801643	     83.97881924	      1.46570690	      7.16398346	      0.00000000	      0.00000000
    120.07111100	    -19.33664021	     -1.38225856	      2.03208174	      0.03497773	      1.29671926	      0.22706229	     75.33517723	     -5.06174216	      0.09354667	     64.91395510	      1.13296225	     -0.38089145	      0.00000000	      0.00000000	     60.63035745	     -6.78757915	     -0.93510088	     87.01814974	      1.51875322	      6.93886272	      0.00000000	      0.00000000
    120.08000000	    -19.37393396	     -1.22006942	      2.71421553	      0.03509095	      1.29633471	      0.22715116	     73.10375536	     -5.75406436	     -0.50544846	     61.59046191	      1.07495635	     -0.55646006	      0.00000000	      0.00000000	     62.46735595	     -6.33182691	     -0.58012390	     90.00040614	      1.57080342	      6.60018068	      0.00000000	      0.00000000
    120.08888900	    -19.46810587	     -0.71774359	      3.43122036	      0.03538782	      1.29613260	      0.22732876	     70.91321138	     -6.58724964	     -0.80081964	     58.29961259	      1.01752019	     -0.48286594	      0.00000000	      0.00000000	     64.22711883	     -5.63258051	     -0.56596983	     92.64894806	      1.61702919	      6.30714648	      0.00000000	      0.00000000
    120.09777800	    -19.42018601	     -0.80008443	      4.15110084	      0.03533509	      1.29554650	      0.22730842	     68.49881100	     -7.13484169	     -1.73278487	     54.99891998	      0.95991224	     -0.96046064	      0.00000000	      0.00000000	     66.17955590	     -5.26608071	     -0.01279204	     95.50134110	      1.66681284	      5.91888818	      0.00000000	      0.00000000
    120.10666700	    -19.54588456	     -0.38447426	      4.83699103	      0.03565910	      1.29510432	      0.22759369	     66.30685952	     -7.85187201	     -2.23795264	     51.82673330	      0.90454714	     -1.06950842	      0.00000000	      0.00000000	     68.06743853	     -4.66832725	     -0.02710043	     97.92849128	      1.70917460	      5.59510013	      0.00000000	      0.00000000
    120.11555600	    -19.58996266	     -0.40296725	      5.52608845	      0.03581732	      1.29455878	      0.22759216	     63.95787221	     -8.33244185	     -3.23899560	     48.60101879	      0.84824780	     -1.64964613	      0.00000000	      0.00000000	     70.08283232	     -4.25883614	      0.35790084	    100.37429714	      1.75186197	      5.25796509	      0.00000000	      0.00000000
    120.12444400	    -19.70858627	     -0.20573580	      6.15171744	      0.03610810	      1.29398683	      0.22776949	     61.76236454	     -8.83793293	     -4.05346569	     45.54868688	      0.79497456	     -2.15805244	      0.00000000	      0.00000000	     72.07281500	     -3.79889670	      0.45912558	    102.55880397	      1.78998881	      4.96205891	      0.00000000	      0.00000000
    120.13333300	    -19.93085758	      0.27781579	      6.71331773	      0.03645569	      1.29334714	      0.22816704	     59.78879769	     -9.42269859	     -4.53958598	     42.74946548	      0.74611893	     -2.34699822	      0.00000000	      0.00000000	     74.04070915	     -3.27845203	      0.19112498	    104.48464328	      1.82360104	      4.74613460	      0.00000000	      0.00000000
    120.14222200	    -20.02794565	      0.17281395	      7.26131647	      0.03674883	      1.29266851	      0.22818331	     57.65188411	     -9.66304682	     -5.75265509	     39.91007301	      0.69656218	     -3.40514716	      0.00000000	      0.00000000	     76.10587939	     -2.98298841	      0.50909494	    106.40414642	      1.85710269	      4.53872754	      0.00000000	      0.00000000
    120.15111100	    -20.19044439	      0.34001993	      7.72373955	      0.03706693	      1.29192424	      0.22837125	     55.75589627	     -9.97202778	     -6.57490340	     37.41025483	      0.65293212	     -4.22107851	      0.00000000	      0.00000000	     78.10466316	     -2.64122894	      0.48497683	    108.07218381	      1.88621544	      4.39179803	      0.00000000	      0.00000000
    120.16000000	    -20.38564246	      0.51726514	      8.12638083	      0.03740318	      1.29115361	      0.22861569	     54.02635269	    -10.23051442	     -7.34304557	     35.16338132	      0.61371678	     -5.07336643	      0.00000000	      0.00000000	     80.09157286	     -2.33931112	      0.39603090	    109.54026030	      1.91183821	      4.31275214	      0.00000000	      0.00000000
    120.16888900	    -20.62164794	      1.07797193	      8.39311937	      0.03768835	      1.29040900	      0.22927497	     52.59224135	    -10.62511125	     -7.53461540	     33.42874161	      0.58344161	     -5.20166975	      0.00000000	      0.00000000	     81.91868380	     -2.07952896	     -0.16206791	    110.71005440	      1.93225496	      4.25465941	      0.00000000	      0.00000000
    120.17777800	    -20.81645297	      0.86034568	      8.70625481	      0.03802401	      1.28957584	      0.22921392	     51.11802928	    -10.57448811	     -8.56509895	     31.61669086	      0.55181535	     -6.82698330	      0.00000000	      0.00000000	     83.95416562	     -1.90246337	      0.08925039	    111.87934982	      1.95266302	      4.25950262	      0.00000000	      0.00000000
    120.18666700	    -21.02199735	      0.99907786	      8.92202702	      0.03824669	      1.28884311	      0.22945095	     49.93084692	    -10.68017383	     -8.96956052	     30.37029218	      0.53006159	     -7.68989050	      0.00000000	      0.00000000	     85.78862522	     -1.70486306	     -0.05237617	    112.73742829	      1.96763931	      4.27669115	      0.00000000	      0.00000000
    120.19555600	    -21.21659327	      1.12281139	      9.05387345	      0.03841982	      1.28821166	      0.22971873	     48.93764770	    -10.73033479	     -9.21900351	     29.50706766	      0.51499548	     -8.45300167	      0.00000000	      0.00000000	     87.52853051	     -1.56388665	     -0.20881939	    113.36690555	      1.97862576	      4.27305480	      0.00000000	      0.00000000
    120.20444400	    -21.08485134	      1.49058382	      9.07981014	      0.03819775	      1.28795772	      0.23022436	     47.94728723	    -10.89198964	     -9.08297818	     29.38299778	      0.51283006	     -8.49778376	      0.00000000	      0.00000000	     88.78004415	     -1.46893180	     -0.58628839	    113.76303014	      1.98553944	      4.22534189	      0.00000000	      0.00000000
    120.21333300	    -21.61409089	      1.29830937	      9.21887316	      0.03863023	      1.28729437	      0.22998451	     47.57133366	    -10.79892271	     -9.34269469	     29.02647158	      0.50660750	     -9.41159513	      0.00000000	      0.00000000	     90.69668778	     -1.24027350	     -0.49154312	    113.90135989	      1.98795375	      4.32911094	      0.00000000	      0.00000000
    120.22222200	    -21.64300674	      1.30623152	      9.20910795	      0.03848062	      1.28712229	      0.23003265	     47.04921831	    -10.73549249	     -9.22701758	     29.42528139	      0.51356804	     -9.80583116	      0.00000000	      0.00000000	     91.96572621	     -1.09570310	     -0.51095701	    113.84033242	      1.98688862	      4.25884151	      0.00000000	      0.00000000
    120.23111100	    -21.48155274	      1.27903483	      9.21917751	      0.03839062	      1.28774607	      0.23008899	     46.37842902	    -10.61096651	     -8.96513695	     29.93423921	      0.52245103	     -9.98152394	      0.00000000	      0.00000000	     92.82845927	     -0.89890274	     -0.48174380	    113.44729333	      1.98002880	      4.32274041	      0.00000000	      0.00000000
    120.24000000	    -21.49590256	      1.13331155	      9.19845048	      0.03814747	      1.28764854	      0.22967228	     46.25004231	    -10.52916439	     -8.89179473	     31.15020200	      0.54367359	    -10.25850161	      0.00000000	      0.00000000	     93.83238389	     -0.65057019	     -0.34692065	    112.94719844	      1.97130049	      4.25136558	      0.00000000	      0.00000000
